<?xml version="1.0" encoding="UTF-8"?>
<svg width="21px" height="19px" viewBox="0 0 21 19" version="1.1" xmlns="http://www.w3.org/2000/svg" xmlns:xlink="http://www.w3.org/1999/xlink">
    <!-- Generator: Sketch 43 (38999) - http://www.bohemiancoding.com/sketch -->
    <title>Shape</title>
    <desc>Created with Sketch.</desc>
    <defs></defs>
    <g id="Page-1" stroke="none" stroke-width="1" fill="none" fill-rule="evenodd">
        <g id="1.-Home-Page" transform="translate(-1369.000000, -27.000000)" fill-rule="nonzero" fill="#1C2333">
            <g id="Right_Navigation" transform="translate(981.000000, 27.000000)">
                <path d="M388.469608,1.53573144e-05 C388.210244,1.53573144e-05 388,0.212680225 388,0.475015899 C388,0.737351574 388.210244,0.950016441 388.469608,0.950016441 L390.905701,0.950016441 L393.37847,12.7804963 C393.353252,13.0511279 393.601698,13.3136844 393.870103,13.3000282 L405.610307,13.3000282 C405.858401,13.3035907 406.086607,13.0760179 406.086607,12.8250276 C406.086607,12.5740611 405.858401,12.3464883 405.610307,12.3500271 L394.251659,12.3500271 L393.855427,10.4500249 L406.549523,10.4500249 C406.759791,10.4476499 406.958458,10.2864585 407.004456,10.0789307 L408.648085,2.95392735 C408.709158,2.67825604 408.472452,2.37703919 408.193152,2.37502044 L392.167773,2.37502044 L391.74954,0.371109531 C391.703002,0.161164041 391.499967,-0.00182051978 391.287257,1.53573144e-05 L388.469608,1.53573144e-05 Z M392.365901,3.32502153 L407.606142,3.32502153 L406.175293,9.50002382 L393.657323,9.50002382 L392.365901,3.32502153 Z M396.218143,14.7250298 C395.056615,14.7250298 394.104907,15.6876421 394.104907,16.8625322 C394.104907,18.0374223 395.056615,19.0000347 396.218143,19.0000347 C397.379696,19.0000347 398.33138,18.0374223 398.33138,16.8625322 C398.33138,15.6876659 397.379696,14.7250298 396.218143,14.7250298 Z M403.262266,14.7250298 C402.100737,14.7250298 401.149029,15.6876421 401.149029,16.8625322 C401.149029,18.0374223 402.100737,19.0000347 403.262266,19.0000347 C404.423819,19.0000347 405.375503,18.0374223 405.375503,16.8625322 C405.375503,15.6876659 404.423819,14.7250298 403.262266,14.7250298 Z M396.218143,15.6750309 C396.872096,15.6750309 397.392164,16.2010702 397.392164,16.8625322 C397.392164,17.524018 396.872096,18.0500336 396.218143,18.0500336 C395.564214,18.0500336 395.044123,17.5239942 395.044123,16.8625322 C395.044123,16.201094 395.564214,15.6750309 396.218143,15.6750309 Z M403.262266,15.6750309 C403.916219,15.6750309 404.436287,16.2010702 404.436287,16.8625322 C404.436287,17.524018 403.916219,18.0500336 403.262266,18.0500336 C402.608337,18.0500336 402.088246,17.5239942 402.088246,16.8625322 C402.088246,16.201094 402.608337,15.6750309 403.262266,15.6750309 Z" id="Shape"></path>
            </g>
        </g>
    </g>
</svg>